<?xml version="1.0" encoding="UTF-8" standalone="no"?>
<svg width="70px" height="70px" viewBox="0 0 70 70" version="1.1" xmlns="http://www.w3.org/2000/svg" xmlns:xlink="http://www.w3.org/1999/xlink">
    <!-- Generator: Sketch 46.1 (44463) - http://www.bohemiancoding.com/sketch -->
    <title>Dich vu</title>
    <desc>Created with Sketch.</desc>
    <defs>
        <polygon id="path-1" points="0 70 69.782 70 69.782 0.229 0 0.229"></polygon>
    </defs>
    <g id="Page-1" stroke="none" stroke-width="1" fill="none" fill-rule="evenodd">
        <g id="Artboard" transform="translate(-540.000000, -733.000000)">
            <g id="Dich-vu" transform="translate(540.000000, 732.000000)">
                <path d="M22.7211,44.1641 L22.7211,44.1641 C22.2001,43.6441 21.3511,43.6431 20.8311,44.1641 L5.3051,59.6921 C5.0531,59.9441 4.9131,60.2801 4.9131,60.6371 C4.9131,60.9941 5.0531,61.3301 5.3041,61.5811 C5.5561,61.8341 5.8921,61.9741 6.2501,61.9741 C6.6061,61.9741 6.9421,61.8351 7.1951,61.5821 L22.7211,46.0551 C23.2421,45.5331 23.2421,44.6851 22.7211,44.1641" id="Fill-1" fill="#020303"></path>
                <path d="M24.7128,48.0449 L9.1858,63.5729 C8.6648,64.0949 8.6648,64.9419 9.1868,65.4649 C9.4388,65.7159 9.7748,65.8549 10.1308,65.8549 C10.4848,65.8549 10.8198,65.7169 11.0768,65.4639 L26.6018,49.9369 C26.8548,49.6839 26.9928,49.3489 26.9928,48.9919 C26.9928,48.6349 26.8548,48.2999 26.6018,48.0469 C26.0808,47.5259 25.2328,47.5239 24.7128,48.0449" id="Fill-3" fill="#020303"></path>
                <g id="Group-7" transform="translate(0.000000, 0.771500)">
                    <mask id="mask-2" fill="white">
                        <use xlink:href="#path-1"></use>
                    </mask>
                    <g id="Clip-6"></g>
                    <path d="M53.2827,54.4512 L51.2737,61.9492 C51.1507,62.4082 51.2837,62.9032 51.6207,63.2402 L55.5197,67.1392 C51.9317,67.4042 48.3757,66.1182 45.8137,63.5552 C42.3347,60.0762 41.2477,54.8632 43.0457,50.2712 C43.2367,49.7772 43.1187,49.2172 42.7447,48.8422 L34.8347,40.9322 L40.7087,35.0572 L48.6187,42.9692 C48.9947,43.3442 49.5557,43.4622 50.0517,43.2682 C54.6417,41.4712 59.8547,42.5572 63.3317,46.0382 C65.8957,48.6022 67.1897,52.1542 66.9167,55.7412 L63.0177,51.8422 C62.6877,51.5132 62.1927,51.3792 61.7277,51.4962 L54.2247,53.5062 C53.7687,53.6312 53.4077,53.9912 53.2827,54.4512 L53.2827,54.4512 Z M34.9377,29.2862 L29.0647,35.1612 L21.1567,27.2512 C20.7837,26.8762 20.2197,26.7572 19.7227,26.9502 C15.1357,28.7492 9.9227,27.6632 6.4427,24.1802 C3.8777,21.6152 2.5837,18.0632 2.8577,14.4772 L6.7557,18.3742 C7.0927,18.7142 7.5887,18.8472 8.0477,18.7222 L15.5477,16.7112 C16.0057,16.5882 16.3677,16.2262 16.4927,15.7652 L18.5017,8.2672 C18.6247,7.8092 18.4927,7.3152 18.1567,6.9772 L14.2547,3.0772 C17.8397,2.8032 21.3917,4.0942 23.9597,6.6632 C27.4377,10.1412 28.5277,15.3492 26.7387,19.9202 C26.4037,20.7302 26.3977,20.7452 34.9377,29.2862 L34.9377,29.2862 Z M66.5547,9.3132 L62.0677,13.8002 L58.7407,13.8002 C58.3837,13.8002 58.0487,13.9382 57.7947,14.1902 L29.5407,42.4492 L27.5477,40.4572 L55.8027,12.1992 C56.0547,11.9472 56.1937,11.6112 56.1937,11.2542 L56.1937,7.9272 L60.6807,3.4402 L66.5547,9.3132 Z M27.6227,44.3112 C28.6667,45.3562 29.2417,46.7452 29.2417,48.2212 C29.2417,49.6962 28.6667,51.0832 27.6237,52.1252 L14.0377,65.7122 C12.9957,66.7562 11.6077,67.3302 10.1317,67.3302 C8.6557,67.3302 7.2677,66.7562 6.2237,65.7112 L4.2827,63.7702 C2.1287,61.6162 2.1287,58.1102 4.2827,55.9562 L17.8687,42.3712 C18.9107,41.3282 20.2987,40.7542 21.7757,40.7542 C23.2527,40.7542 24.6397,41.3282 25.6827,42.3722 L27.6227,44.3112 Z M49.9087,40.4792 L42.5977,33.1692 L59.2947,16.4732 L62.6217,16.4732 C62.9787,16.4732 63.3137,16.3352 63.5687,16.0832 L69.3927,10.2592 C69.6437,10.0062 69.7827,9.6712 69.7827,9.3142 C69.7827,8.9612 69.6447,8.6262 69.3917,8.3692 L61.6277,0.6062 C61.1217,0.1022 60.2427,0.1022 59.7377,0.6062 L53.9147,6.4292 C53.6627,6.6802 53.5247,7.0162 53.5247,7.3742 L53.5247,10.7012 L36.8277,27.3972 L29.5157,20.0852 C31.2577,14.7322 29.8397,8.7642 25.8487,4.7742 C22.0127,0.9372 16.3777,-0.5398 11.1377,0.9292 C10.6837,1.0562 10.3277,1.4202 10.2077,1.8762 C10.0877,2.3362 10.2217,2.8282 10.5557,3.1582 L15.7197,8.3242 L14.1117,14.3312 L8.1027,15.9412 L2.9387,10.7772 C2.6037,10.4432 2.1117,10.3102 1.6567,10.4302 C1.1967,10.5492 0.8327,10.9082 0.7087,11.3632 C-0.7533,16.6002 0.7207,22.2362 4.5557,26.0712 C8.5447,30.0592 14.5137,31.4762 19.8657,29.7362 L27.1777,37.0492 L25.3137,38.9122 C22.1417,37.3592 18.3907,38.0722 15.9837,40.4792 L2.3967,54.0632 C-0.7993,57.2612 -0.7993,62.4622 2.3967,65.6582 L4.3387,67.5982 C5.8867,69.1462 7.9457,70.0002 10.1357,70.0002 C12.3247,70.0002 14.3837,69.1462 15.9317,67.5982 L29.5167,54.0132 C31.0657,52.4652 31.9177,50.4072 31.9177,48.2172 C31.9177,47.0022 31.6377,45.8152 31.0847,44.6822 L32.9487,42.8182 L40.2597,50.1312 C38.5207,55.4832 39.9377,61.4512 43.9277,65.4412 C46.7247,68.2392 50.6087,69.8442 54.5817,69.8442 C55.9507,69.8442 57.3157,69.6562 58.6397,69.2862 C59.0947,69.1582 59.4497,68.7952 59.5697,68.3432 C59.6917,67.8852 59.5587,67.3922 59.2237,67.0562 L54.0577,61.8912 L55.6667,55.8842 L61.6747,54.2742 L66.8397,59.4402 C67.1807,59.7802 67.6747,59.9122 68.1217,59.7872 C68.5817,59.6682 68.9457,59.3092 69.0707,58.8542 C70.5327,53.6172 69.0567,47.9802 65.2217,44.1442 C61.2307,40.1562 55.2637,38.7412 49.9087,40.4792 L49.9087,40.4792 Z" id="Fill-5" fill="#020303" mask="url(#mask-2)"></path>
                </g>
            </g>
        </g>
    </g>
</svg>