<?xml version="1.0" encoding="UTF-8" standalone="no"?>
<svg width="73px" height="73px" viewBox="0 0 73 73" version="1.1" xmlns="http://www.w3.org/2000/svg" xmlns:xlink="http://www.w3.org/1999/xlink">
    <!-- Generator: Sketch 46.1 (44463) - http://www.bohemiancoding.com/sketch -->
    <title>Du lich</title>
    <desc>Created with Sketch.</desc>
    <defs>
        <polygon id="path-1" points="36.0145388 0.0003 0 0.0003 0 72.1883 72.029 72.1883 72.029 0.0003 36.0145388 0.0003 72.0292886 0.0003 72.0292886 72.1885668 7.75395429e-05 72.1885668 7.75395429e-05 0.0003"></polygon>
    </defs>
    <g id="Page-1" stroke="none" stroke-width="1" fill="none" fill-rule="evenodd">
        <g id="Artboard" transform="translate(-677.000000, -732.000000)">
            <g id="Du-lich" transform="translate(677.000000, 732.000000)">
                <mask id="mask-2" fill="white">
                    <use xlink:href="#path-1"></use>
                </mask>
                <g id="Clip-2"></g>
                <path d="M68.397,8.7373 C67.261,11.5813 65.51,14.2533 64.439,15.3243 L53.931,25.8323 C53.594,26.1703 53.466,26.6643 53.596,27.1223 L61.8,55.9183 L56.539,61.1793 L43.297,38.7863 C43.088,38.4333 42.737,38.2023 42.332,38.1513 C41.92,38.1013 41.528,38.2363 41.238,38.5253 L26.549,53.2133 C26.274,53.4893 26.135,53.8713 26.169,54.2583 L27.071,64.4603 L26.988,64.5423 L22.955,68.5753 L17.348,55.5273 C17.214,55.2163 16.97,54.9723 16.66,54.8393 L3.613,49.2323 L7.728,45.1163 L7.845,45.1273 L17.643,45.9923 C18.014,46.0283 18.413,45.8853 18.687,45.6133 L33.305,30.9943 C33.594,30.7053 33.731,30.3063 33.679,29.9003 C33.628,29.5013 33.391,29.1393 33.044,28.9333 L11.631,16.2723 L16.894,11.0093 L17.036,11.0503 L44.477,18.8693 C44.933,18.9973 45.428,18.8723 45.765,18.5343 L56.708,7.5923 C58.668,5.6323 64.273,2.6263 67.474,2.6263 C67.947,2.6263 68.58,2.6953 68.908,3.0253 L69.004,3.1223 C69.714,3.8323 69.476,6.0363 68.397,8.7373 M70.863,1.2663 L70.766,1.1693 C69.99,0.3933 68.881,0.0003 67.473,0.0003 C63.332,0.0003 57.132,3.4523 54.849,5.7353 L44.455,16.1313 L44.313,16.0913 L16.872,8.2713 C16.416,8.1423 15.92,8.2683 15.583,8.6053 L8.576,15.6123 C8.292,15.8973 8.151,16.3063 8.202,16.7063 C8.253,17.1123 8.485,17.4653 8.836,17.6733 L30.251,30.3343 L17.263,43.3223 L17.146,43.3113 L7.348,42.4463 C7.309,42.4423 7.27,42.4413 7.231,42.4413 C6.885,42.4413 6.552,42.5783 6.304,42.8253 L0.385,48.7453 C0.077,49.0533 -0.059,49.4933 0.024,49.9213 C0.107,50.3503 0.394,50.7093 0.794,50.8813 L15.141,57.0463 L15.18,57.1373 L21.306,71.3923 C21.479,71.7933 21.837,72.0803 22.265,72.1633 C22.705,72.2513 23.14,72.1043 23.441,71.8023 L29.361,65.8833 C29.636,65.6073 29.774,65.2253 29.74,64.8393 L28.838,54.6373 L28.921,54.5553 L41.896,41.5813 L55.137,63.9743 C55.346,64.3273 55.699,64.5583 56.104,64.6093 C56.507,64.6653 56.909,64.5253 57.198,64.2343 L64.204,57.2283 C64.541,56.8903 64.668,56.3963 64.539,55.9393 L56.334,27.1433 L66.296,17.1823 C67.821,15.6583 69.688,12.5863 70.836,9.7113 C72.418,5.7513 72.427,2.8313 70.863,1.2663" id="Fill-1" fill="#020303"></path>
            </g>
        </g>
    </g>
</svg>